<mxfile host="app.diagrams.net" modified="2023-08-13T08:19:49.563Z" agent="Mozilla/5.0 (Macintosh; Intel Mac OS X 10_15_7) AppleWebKit/537.36 (KHTML, like Gecko) Chrome/115.0.0.0 Safari/537.36 Edg/115.0.1901.200" etag="sw2Q8HdeuLeTvUvDtfCq" version="21.6.6" type="device">
  <diagram name="第 1 页" id="i2Zv9Ewm32RonlviyjE5">
    <mxGraphModel dx="1004" dy="682" grid="1" gridSize="10" guides="1" tooltips="1" connect="1" arrows="1" fold="1" page="1" pageScale="1" pageWidth="827" pageHeight="1169" math="0" shadow="0">
      <root>
        <mxCell id="0" />
        <mxCell id="1" parent="0" />
        <mxCell id="FMQBcn353J0ZzZ8g8S_0-35" value="" style="edgeStyle=orthogonalEdgeStyle;rounded=0;orthogonalLoop=1;jettySize=auto;html=1;" edge="1" parent="1" source="FMQBcn353J0ZzZ8g8S_0-2">
          <mxGeometry relative="1" as="geometry">
            <mxPoint x="622" y="350" as="targetPoint" />
          </mxGeometry>
        </mxCell>
        <mxCell id="FMQBcn353J0ZzZ8g8S_0-2" value="OlapScanOperator" style="ellipse;whiteSpace=wrap;html=1;fillColor=#f8cecc;strokeColor=#b85450;" vertex="1" parent="1">
          <mxGeometry x="436" y="310" width="120" height="80" as="geometry" />
        </mxCell>
        <mxCell id="FMQBcn353J0ZzZ8g8S_0-63" style="edgeStyle=orthogonalEdgeStyle;rounded=0;orthogonalLoop=1;jettySize=auto;html=1;exitX=1;exitY=0.5;exitDx=0;exitDy=0;exitPerimeter=0;entryX=0;entryY=0.5;entryDx=0;entryDy=0;" edge="1" parent="1" source="FMQBcn353J0ZzZ8g8S_0-7" target="FMQBcn353J0ZzZ8g8S_0-2">
          <mxGeometry relative="1" as="geometry" />
        </mxCell>
        <mxCell id="FMQBcn353J0ZzZ8g8S_0-7" value="storage" style="shape=cylinder3;whiteSpace=wrap;html=1;boundedLbl=1;backgroundOutline=1;size=15;" vertex="1" parent="1">
          <mxGeometry x="306" y="300" width="60" height="100" as="geometry" />
        </mxCell>
        <mxCell id="FMQBcn353J0ZzZ8g8S_0-39" value="" style="edgeStyle=orthogonalEdgeStyle;rounded=0;orthogonalLoop=1;jettySize=auto;html=1;" edge="1" parent="1" source="FMQBcn353J0ZzZ8g8S_0-40" target="FMQBcn353J0ZzZ8g8S_0-43">
          <mxGeometry relative="1" as="geometry" />
        </mxCell>
        <mxCell id="FMQBcn353J0ZzZ8g8S_0-40" value="OlapPrepareOperator" style="ellipse;whiteSpace=wrap;html=1;fillColor=#d5e8d4;strokeColor=#82b366;" vertex="1" parent="1">
          <mxGeometry x="36" y="180" width="130" height="70" as="geometry" />
        </mxCell>
        <mxCell id="FMQBcn353J0ZzZ8g8S_0-43" value="NoopSinkOperator" style="ellipse;whiteSpace=wrap;html=1;" vertex="1" parent="1">
          <mxGeometry x="242" y="182.5" width="106" height="65" as="geometry" />
        </mxCell>
        <mxCell id="FMQBcn353J0ZzZ8g8S_0-59" value="Push" style="text;html=1;strokeColor=none;fillColor=none;align=center;verticalAlign=middle;whiteSpace=wrap;rounded=0;" vertex="1" parent="1">
          <mxGeometry x="760" y="320" width="40" height="30" as="geometry" />
        </mxCell>
        <mxCell id="FMQBcn353J0ZzZ8g8S_0-64" value="Read" style="text;html=1;strokeColor=none;fillColor=none;align=center;verticalAlign=middle;whiteSpace=wrap;rounded=0;" vertex="1" parent="1">
          <mxGeometry x="372" y="320" width="40" height="30" as="geometry" />
        </mxCell>
        <mxCell id="FMQBcn353J0ZzZ8g8S_0-70" style="edgeStyle=orthogonalEdgeStyle;rounded=0;orthogonalLoop=1;jettySize=auto;html=1;entryX=0;entryY=0.5;entryDx=0;entryDy=0;strokeWidth=2;" edge="1" parent="1" source="FMQBcn353J0ZzZ8g8S_0-65" target="FMQBcn353J0ZzZ8g8S_0-67">
          <mxGeometry relative="1" as="geometry" />
        </mxCell>
        <mxCell id="FMQBcn353J0ZzZ8g8S_0-65" value="" style="rounded=1;whiteSpace=wrap;html=1;fillColor=none;dashed=1;" vertex="1" parent="1">
          <mxGeometry x="4" y="170" width="366" height="90" as="geometry" />
        </mxCell>
        <mxCell id="FMQBcn353J0ZzZ8g8S_0-66" value="HashJoinBuildOperator" style="ellipse;whiteSpace=wrap;html=1;" vertex="1" parent="1">
          <mxGeometry x="620" y="310" width="130" height="80" as="geometry" />
        </mxCell>
        <mxCell id="FMQBcn353J0ZzZ8g8S_0-67" value="" style="rounded=1;whiteSpace=wrap;html=1;fillColor=none;dashed=1;" vertex="1" parent="1">
          <mxGeometry x="290" y="290" width="510" height="120" as="geometry" />
        </mxCell>
        <mxCell id="FMQBcn353J0ZzZ8g8S_0-68" value="" style="edgeStyle=orthogonalEdgeStyle;rounded=0;orthogonalLoop=1;jettySize=auto;html=1;" edge="1" parent="1">
          <mxGeometry relative="1" as="geometry">
            <mxPoint x="750" y="350" as="sourcePoint" />
            <mxPoint x="816" y="350" as="targetPoint" />
          </mxGeometry>
        </mxCell>
        <mxCell id="FMQBcn353J0ZzZ8g8S_0-69" value="Pull" style="text;html=1;strokeColor=none;fillColor=none;align=center;verticalAlign=middle;whiteSpace=wrap;rounded=0;" vertex="1" parent="1">
          <mxGeometry x="567" y="321" width="40" height="30" as="geometry" />
        </mxCell>
        <mxCell id="FMQBcn353J0ZzZ8g8S_0-71" value="&lt;b&gt;dependency&lt;/b&gt;" style="text;html=1;strokeColor=none;fillColor=none;align=center;verticalAlign=middle;whiteSpace=wrap;rounded=0;strokeWidth=2;" vertex="1" parent="1">
          <mxGeometry x="100" y="291" width="80" height="30" as="geometry" />
        </mxCell>
        <mxCell id="FMQBcn353J0ZzZ8g8S_0-72" value="&lt;i&gt;&lt;b&gt;Pipeline 0&lt;/b&gt;&lt;/i&gt;" style="text;html=1;align=center;verticalAlign=middle;resizable=0;points=[];autosize=1;strokeColor=none;fillColor=none;" vertex="1" parent="1">
          <mxGeometry x="10" y="148" width="80" height="30" as="geometry" />
        </mxCell>
        <mxCell id="FMQBcn353J0ZzZ8g8S_0-73" value="&lt;i&gt;&lt;b&gt;Pipeline 1&lt;/b&gt;&lt;/i&gt;" style="text;html=1;align=center;verticalAlign=middle;resizable=0;points=[];autosize=1;strokeColor=none;fillColor=none;" vertex="1" parent="1">
          <mxGeometry x="295" y="264" width="80" height="30" as="geometry" />
        </mxCell>
      </root>
    </mxGraphModel>
  </diagram>
</mxfile>
